<svg width="45" height="100" viewBox="0 0 45 100" fill="none" xmlns="http://www.w3.org/2000/svg">
<path fill-rule="evenodd" clip-rule="evenodd" d="M11.1738 66.4201C14.1044 66.4201 17.035 66.4196 19.9656 66.4191C21.4209 66.4191 22.8767 66.4191 24.332 66.4191C27.2617 66.4191 30.1923 66.4191 33.122 66.4196C34.9556 66.4196 36.7883 66.4196 38.6796 66.4196C38.6796 66.6515 38.6796 66.8354 38.6796 67.0197C38.6796 73.3929 38.6801 79.7662 38.6796 86.139C38.6796 88.3122 37.4821 89.5043 35.3016 89.5043C26.5683 89.5047 17.8351 89.5047 9.10187 89.5043C6.91987 89.5043 5.72189 88.3122 5.72189 86.1409C5.72141 79.7672 5.72189 73.3944 5.72189 67.0211C5.72189 66.8492 5.72189 66.6777 5.72189 66.4196C7.55174 66.4201 9.363 66.4201 11.1738 66.4201Z" fill="#333333"/>
<path fill-rule="evenodd" clip-rule="evenodd" d="M13.8621 91.707C19.404 91.707 24.9036 91.707 30.4017 91.707C30.5361 96.34 27.0108 99.6928 22.6877 99.9815C18.502 100.261 13.8978 97.3611 13.8621 91.707Z" fill="#333333"/>
<path fill-rule="evenodd" clip-rule="evenodd" d="M11.1737 66.4201C11.1727 64.515 11.1665 62.61 11.1761 60.705C11.1775 60.3959 11.1208 60.2239 10.7877 60.0949C8.21163 59.0971 5.65127 58.0603 3.07805 57.0559C1.32015 56.3701 0.214143 54.9022 0.210808 53.1863C0.207472 51.4427 1.2787 49.9373 3.00466 49.2605C7.94763 47.3216 12.8916 45.3871 17.8322 43.4425C23.2369 41.3156 28.6378 39.1776 34.0435 37.0531C34.3294 36.9407 34.4247 36.7897 34.4242 36.4825C34.4151 29.7282 34.4142 22.9739 34.4256 16.2196C34.4266 15.902 34.3065 15.7662 34.0406 15.6429C30.3985 13.9531 26.7636 12.2496 23.1182 10.5688C22.9176 10.4764 22.6026 10.475 22.4015 10.5655C18.5369 12.3077 14.6842 14.0765 10.8196 15.8182C10.4661 15.9772 10.3936 16.1763 10.3936 16.5244C10.4022 23.6597 10.4032 30.795 10.3984 37.9298C10.397 40.3759 8.86685 42.4433 6.62528 43.0601C3.23625 43.9926 0.0111441 41.5204 0.00637887 37.9603C-0.00362811 30.3402 -0.00124525 22.7201 0.00923826 15.1C0.0106678 14.2208 -0.0360313 13.3097 0.16792 12.4686C0.615376 10.6246 1.75331 9.26389 3.49882 8.46569C8.51851 6.1706 13.5449 3.88837 18.5641 1.59329C18.9391 1.42183 19.3037 1.21276 19.6401 0.975104C21.1173 -0.0707581 22.7208 -0.306982 24.3605 0.42074C27.3331 1.74045 30.2675 3.14684 33.2157 4.52084C35.9453 5.79197 38.6519 7.11311 41.4057 8.329C43.7593 9.36772 44.7805 11.1913 44.8076 13.6569C44.8362 16.2892 44.8143 18.9219 44.8143 21.5542C44.8143 26.975 44.8234 32.3957 44.81 37.8165C44.8043 40.0663 43.7264 41.7747 41.8637 42.9144C40.8773 43.5178 39.7179 43.8435 38.6281 44.2726C34.6053 45.8572 30.5772 47.4302 26.554 49.0128C23.2364 50.3178 19.9217 51.6299 16.6061 52.9396C16.4698 52.9934 16.3378 53.0577 16.1281 53.1501C16.73 53.4068 17.2737 53.5782 17.7569 53.855C19.2279 54.6984 19.9694 55.9833 19.9665 57.6903C19.9622 60.5997 19.9655 63.5097 19.9655 66.4196C17.0349 66.4196 14.1043 66.4201 11.1737 66.4201Z" fill="#FEBF00"/>
<path fill-rule="evenodd" clip-rule="evenodd" d="M33.1216 66.4196C30.1919 66.4196 27.2613 66.4191 24.3317 66.4191C24.3317 63.5616 24.3312 60.704 24.3321 57.8469C24.3331 55.6857 25.279 54.3174 27.3009 53.5216C30.7962 52.1452 34.2891 50.7636 37.782 49.3815C39.8692 48.5556 42.1412 49.1552 43.3011 50.8441C44.7979 53.0248 43.9358 55.9233 41.4436 56.9649C39.68 57.7022 37.8883 58.3727 36.1089 59.0728C35.2121 59.4257 34.3067 59.7591 33.4256 60.1477C33.2736 60.2149 33.1411 60.5126 33.1388 60.705C33.1164 62.61 33.123 64.515 33.1216 66.4196Z" fill="#FEBF00"/>
</svg>
