<svg width="294" height="56" viewBox="0 0 294 56" fill="none" xmlns="http://www.w3.org/2000/svg">
<path fill-rule="evenodd" clip-rule="evenodd" d="M10.4436 37.1952C12.0847 37.1952 13.7259 37.195 15.367 37.1947C16.182 37.1947 16.9972 37.1947 17.8122 37.1947C19.4528 37.1947 21.0939 37.1947 22.7345 37.195C23.7614 37.195 24.7877 37.195 25.8468 37.195C25.8468 37.3249 25.8468 37.4278 25.8468 37.531C25.8468 41.1001 25.8471 44.6691 25.8468 48.2379C25.8468 49.4548 25.1762 50.1224 23.9551 50.1224C19.0645 50.1227 14.1739 50.1227 9.28329 50.1224C8.06137 50.1224 7.3905 49.4548 7.3905 48.2389C7.39023 44.6696 7.3905 41.1009 7.3905 37.5318C7.3905 37.4355 7.3905 37.3395 7.3905 37.195C8.41521 37.1952 9.42952 37.1952 10.4436 37.1952Z" fill="#333333"/>
<path fill-rule="evenodd" clip-rule="evenodd" d="M11.9487 51.3559C15.0522 51.3559 18.132 51.3559 21.2109 51.3559C21.2862 53.9504 19.312 55.828 16.8911 55.9896C14.5471 56.1464 11.9687 54.5222 11.9487 51.3559Z" fill="#333333"/>
<path fill-rule="evenodd" clip-rule="evenodd" d="M10.4433 37.1952C10.4428 36.1284 10.4393 35.0616 10.4446 33.9948C10.4454 33.8217 10.4137 33.7254 10.2272 33.6531C8.78455 33.0944 7.35075 32.5138 5.90974 31.9513C4.92532 31.5672 4.30596 30.7453 4.30409 29.7843C4.30222 28.8079 4.9021 27.9649 5.86865 27.5859C8.63671 26.5001 11.4053 25.4168 14.172 24.3278C17.1987 23.1367 20.2232 21.9395 23.2504 20.7497C23.4105 20.6868 23.4639 20.6022 23.4636 20.4302C23.4585 16.6478 23.458 12.8654 23.4644 9.083C23.4649 8.90511 23.3977 8.8291 23.2488 8.76002C21.2092 7.81375 19.1737 6.85975 17.1322 5.91855C17.0199 5.86681 16.8435 5.86601 16.7309 5.91668C14.5667 6.89229 12.4092 7.88283 10.245 8.85817C10.047 8.94725 10.0065 9.05873 10.0065 9.25369C10.0113 13.2495 10.0118 17.2452 10.0091 21.2407C10.0083 22.6105 9.15147 23.7683 7.8962 24.1137C5.99834 24.6359 4.19228 23.2514 4.18961 21.2578C4.184 16.9905 4.18534 12.7232 4.19121 8.45598C4.19201 7.96364 4.16586 7.45344 4.28007 6.98244C4.53065 5.94976 5.16789 5.18778 6.14537 4.74078C8.9564 3.45554 11.7712 2.17749 14.5819 0.892241C14.7919 0.796227 14.9961 0.679144 15.1845 0.546058C16.0117 -0.0396245 16.9097 -0.17191 17.8279 0.235614C19.4926 0.974652 21.1358 1.76223 22.7869 2.53167C24.3154 3.24351 25.8311 3.98334 27.3733 4.66424C28.6912 5.24592 29.2631 6.26713 29.2783 7.64786C29.2943 9.12194 29.2821 10.5963 29.2821 12.0704C29.2821 15.106 29.2871 18.1416 29.2797 21.1772C29.2765 22.4372 28.6728 23.3938 27.6297 24.032C27.0773 24.37 26.4281 24.5524 25.8178 24.7927C23.565 25.68 21.3093 26.5609 19.0563 27.4472C17.1984 28.178 15.3422 28.9127 13.4854 29.6462C13.4091 29.6763 13.3352 29.7123 13.2178 29.7641C13.5548 29.9078 13.8593 30.0038 14.1299 30.1588C14.9537 30.6311 15.3689 31.3507 15.3673 32.3065C15.3649 33.9358 15.3667 35.5654 15.3667 37.195C13.7256 37.195 12.0845 37.1952 10.4433 37.1952Z" fill="#FEBF00"/>
<path fill-rule="evenodd" clip-rule="evenodd" d="M22.734 37.195C21.0933 37.195 19.4522 37.1947 17.8116 37.1947C17.8116 35.5945 17.8113 33.9943 17.8119 32.3943C17.8124 31.184 18.3421 30.4177 19.4744 29.9721C21.4317 29.2013 23.3878 28.4276 25.3438 27.6536C26.5126 27.1912 27.785 27.5269 28.4345 28.4727C29.2727 29.6939 28.7899 31.3171 27.3943 31.9004C26.4067 32.3132 25.4033 32.6887 24.4069 33.0808C23.9046 33.2784 23.3976 33.4651 22.9042 33.6827C22.8191 33.7203 22.7449 33.887 22.7436 33.9948C22.731 35.0616 22.7348 36.1284 22.734 37.195Z" fill="#FEBF00"/>
<path fill-rule="evenodd" clip-rule="evenodd" d="M133.622 8.68139C138.686 8.72721 139.898 9.7208 140.94 14.6049C142.556 22.1814 144.202 29.7523 145.843 37.3243C146.244 39.1807 146.668 39.5115 148.178 39.5182C149.782 39.5238 149.923 38.3391 150.18 37.2315C151.974 29.4863 153.74 21.7354 155.56 13.9969C156.427 10.3098 157.615 9.20445 161.344 8.86357C163.063 8.70487 164.834 8.86692 166.558 9.0748C168.453 9.3028 169.674 10.4931 169.962 12.3819C170.433 15.4688 170.814 18.5691 171.163 21.6728C172.046 29.4985 172.883 37.3287 173.756 45.1544C173.922 46.6543 173.846 46.7828 172.355 46.794C172.152 46.7951 171.95 46.794 171.746 46.794C168.988 46.7772 168.326 46.1447 168.023 43.431C166.994 34.234 165.944 25.0392 164.892 15.8443C164.686 14.055 164.353 13.665 163.097 13.5901C161.481 13.4928 160.861 13.9477 160.468 15.6331C159.145 21.3219 157.856 27.0185 156.526 32.7039C155.927 35.27 155.257 37.8193 154.632 40.3787C154.067 42.6956 152.531 43.9451 150.226 44.0714C148.38 44.172 146.51 44.0558 144.663 43.8971C142.793 43.735 141.612 42.5973 141.185 40.8001C140.404 37.5265 139.682 34.2396 138.976 30.9492C137.887 25.8729 136.838 20.7877 135.758 15.7091C135.531 14.6451 135.207 13.6627 133.817 13.5923C132.222 13.513 131.615 13.8862 131.41 15.4688C130.815 20.0567 130.267 24.6524 129.714 29.2448C129.128 34.1211 128.577 39.0007 127.969 43.8747C127.673 46.2497 125.055 47.7093 122.856 46.7102C122.581 46.585 122.394 45.891 122.439 45.4897C122.828 42.0217 123.278 38.5604 123.71 35.0968C124.488 28.8548 125.261 22.6117 126.049 16.3696C126.191 15.2431 126.364 14.1187 126.573 13.0033C126.993 10.758 128.333 9.39669 130.602 9.02451C131.6 8.86357 132.616 8.79427 133.622 8.68139Z" fill="#FEC003"/>
<path fill-rule="evenodd" clip-rule="evenodd" d="M180.099 28.7207C180.354 24.781 180.697 20.9285 182.127 17.2202C183.857 12.7373 187.04 10.0762 191.738 9.20445C196.972 8.23211 202.153 8.1997 207.213 10.1388C209.704 11.0944 211.357 12.8614 212.426 15.2922C214.533 20.088 214.83 25.1398 214.407 30.2239C214.167 33.1063 213.604 36.0133 212.769 38.7828C211.453 43.155 208.258 45.7244 203.836 46.69C199.625 47.6099 195.378 47.6959 191.128 46.9225C185.598 45.9178 182.413 42.4475 181.234 37.141C180.624 34.3871 180.465 31.5315 180.099 28.7207ZM185.694 28.2859C186.151 31.0845 186.452 33.911 187.108 36.6514C187.809 39.5841 189.836 41.3332 192.825 41.9837C195.654 42.5984 198.471 42.4665 201.304 42.0731C204.597 41.616 206.677 39.7976 207.576 36.6022C209.21 30.7972 209.162 24.9665 207.66 19.1671C206.938 16.3708 205.142 14.3501 202.151 13.9913C199.669 13.6929 197.125 13.57 194.637 13.7544C190.652 14.0483 187.971 16.2478 187.056 20.1931C186.448 22.8251 186.148 25.5253 185.694 28.2859Z" fill="#FEC003"/>
<path fill-rule="evenodd" clip-rule="evenodd" d="M223.902 28.0289C223.902 22.2574 223.923 16.487 223.884 10.7155C223.876 9.65264 224.138 9.18771 225.305 9.18212C230.629 9.15977 235.952 8.9854 241.274 9.0234C243.079 9.03681 244.925 9.34528 246.673 9.81357C249.503 10.5702 250.874 12.7496 251.356 15.4912C252.168 20.1249 251.492 24.4949 248.601 28.3261C247.611 29.6383 247.41 30.9358 247.967 32.4212C249.504 36.524 251.042 40.628 252.576 44.732C252.704 45.074 252.855 45.4137 252.921 45.7691C253.037 46.4006 252.798 46.7325 252.093 46.8018C248.647 47.1416 247.13 46.2229 245.946 43.0097C245.006 40.4592 244.091 37.8987 243.121 35.3583C242.037 32.5207 241.132 31.9115 238.113 31.897C235.713 31.8847 233.314 31.9194 230.914 31.8836C229.868 31.8679 229.461 32.3049 229.467 33.3399C229.493 37.2818 229.483 41.2248 229.474 45.1667C229.472 46.6387 229.323 46.7783 227.871 46.7906C226.936 46.7973 225.996 46.7348 225.066 46.8074C224 46.8879 223.887 46.3168 223.891 45.4629C223.913 39.6523 223.902 33.8406 223.902 28.0289ZM229.447 20.3507C229.447 22.178 229.464 24.0054 229.439 25.8305C229.427 26.6732 229.709 27.1146 230.628 27.1057C234.162 27.0666 237.694 27.0554 241.228 27.0431C242.764 27.0375 243.823 26.3099 244.567 24.9967C245.983 22.5021 246.194 19.8589 245.624 17.105C245.255 15.3146 244.159 14.0751 242.364 13.9734C238.481 13.7544 234.585 13.7398 230.692 13.6951C229.857 13.6862 229.398 14.169 229.428 15.1145C229.484 16.8592 229.444 18.6049 229.447 20.3507Z" fill="#FEC004"/>
<path fill-rule="evenodd" clip-rule="evenodd" d="M83.118 23.242C83.118 18.9782 83.1415 14.7122 83.1013 10.4484C83.0923 9.42017 83.382 9.01 84.4801 9.00776C88.6456 9.00441 88.8637 9.18882 88.8648 13.3889C88.8648 19.8064 88.848 26.2239 88.8782 32.6413C88.8849 34.0585 89.0247 35.4768 89.16 36.8895C89.3814 39.203 90.6853 40.7386 92.8514 41.4047C96.677 42.5805 100.562 42.5459 104.375 41.3723C107.212 40.4983 108.118 38.1167 108.204 35.4623C108.352 30.9593 108.318 26.4485 108.354 21.94C108.383 18.4082 108.364 14.8742 108.446 11.3436C108.485 9.68169 108.917 9.31065 110.542 9.07818C113.868 8.60318 114.055 8.76411 114.055 12.0902C114.055 18.8329 114.084 25.5745 114.035 32.3172C114.02 34.2597 113.833 36.2055 113.637 38.1412C113.202 42.4095 110.72 44.989 106.706 46.1346C101.029 47.7541 95.3261 47.7876 89.6655 46.0508C85.6006 44.8035 83.5038 41.8831 83.3708 37.7355C83.2142 32.9107 83.3339 28.0747 83.3339 23.2454C83.2612 23.2431 83.1896 23.2431 83.118 23.242Z" fill="#FEC004"/>
<path fill-rule="evenodd" clip-rule="evenodd" d="M269.757 40.4995C269.757 39.1192 269.754 37.7367 269.758 36.3553C269.765 34.2742 269.222 32.3776 268.112 30.5894C264.069 24.0668 260.074 17.5141 256.084 10.9592C255.811 10.511 255.723 9.95104 255.549 9.44251C256.073 9.30616 256.591 9.08711 257.121 9.05135C257.845 9.00329 258.582 9.0737 259.309 9.1307C260.987 9.2637 262.137 10.1355 262.985 11.585C265.423 15.7561 267.917 19.8947 270.398 24.0411C270.731 24.5966 271.09 25.1409 271.482 25.6583C272.419 26.9 272.906 26.9224 273.956 25.7187C274.459 25.1398 274.917 24.5083 275.316 23.8522C277.7 19.9316 280.066 16.0019 282.424 12.0656C283.946 9.52634 286.275 8.46347 289.133 9.04912C290.182 9.26258 289.791 9.83928 289.456 10.3847C287.652 13.3263 285.842 16.2646 284.033 19.2051C281.801 22.8363 279.618 26.4999 277.317 30.0887C275.969 32.1887 275.389 34.4363 275.4 36.8895C275.412 39.7339 275.379 42.5783 275.413 45.4226C275.425 46.3961 275.089 46.8555 274.068 46.8041C273.055 46.7538 272.034 46.7526 271.02 46.8052C270.046 46.8555 269.725 46.4185 269.745 45.4975C269.785 43.8334 269.757 42.1659 269.757 40.4995Z" fill="#FEC003"/>
<path fill-rule="evenodd" clip-rule="evenodd" d="M54.8486 25.475C54.8486 30.2261 54.8441 34.9783 54.8508 39.7294C54.853 41.6473 55.1091 41.9479 57.0225 41.9211C63.2355 41.8328 69.4475 41.7076 75.6605 41.578C76.7777 41.5545 77.1232 41.873 76.7587 42.9493C76.062 45.008 74.814 46.7974 71.7925 46.7839C65.9428 46.7549 60.0932 46.8085 54.2436 46.8197C53.1063 46.8219 51.9679 46.8063 50.8318 46.7638C49.879 46.7292 49.3199 46.2486 49.2998 45.2494C49.2931 44.9253 49.2875 44.6001 49.2875 44.2759C49.2863 33.1074 49.2863 21.94 49.2875 10.7714C49.2875 9.03011 49.2897 9.03011 51.0398 9.03011C54.8475 9.02899 54.8486 9.02899 54.8486 12.8044C54.8486 17.0279 54.8486 21.2515 54.8486 25.475Z" fill="#FEC001"/>
</svg>
